<?xml version="1.0" encoding="utf-8"?>
<!-- Generator: Adobe Illustrator 27.0.0, SVG Export Plug-In . SVG Version: 6.00 Build 0)  -->
<svg version="1.1" id="Layer_1" xmlns="http://www.w3.org/2000/svg" xmlns:xlink="http://www.w3.org/1999/xlink" x="0px" y="0px"
	 viewBox="0 0 32 32" style="enable-background:new 0 0 32 32;" xml:space="preserve">
<style type="text/css">
	.st0{fill:#FFFFFF;}
</style>
<path class="st0" d="M32,16.25c0-1.94-1.57-3.51-3.51-3.51c-0.96,0-1.8,0.37-2.42,0.98c-2.39-1.72-5.71-2.84-9.36-2.98l1.6-7.51
	l5.2,1.1c0.06,1.32,1.15,2.39,2.5,2.39c1.38,0,2.5-1.12,2.5-2.5c0-1.38-1.12-2.5-2.5-2.5c-0.98,0-1.83,0.56-2.22,1.41l-5.82-1.24
	c-0.17-0.03-0.34,0-0.48,0.08c-0.14,0.08-0.22,0.22-0.28,0.39l-1.77,8.38c-3.74,0.11-7.09,1.21-9.5,2.98
	c-0.62-0.59-1.49-0.98-2.42-0.98C1.57,12.74,0,14.31,0,16.25c0,1.43,0.84,2.64,2.08,3.21C2.02,19.8,2,20.16,2,20.53
	c0,5.4,6.27,9.76,14.03,9.76s14.03-4.36,14.03-9.76c0-0.37-0.03-0.7-0.08-1.04C31.13,18.92,32,17.69,32,16.25z M7.96,18.76
	c0-1.38,1.12-2.5,2.5-2.5s2.5,1.12,2.5,2.5c0,1.38-1.12,2.5-2.5,2.5S7.96,20.13,7.96,18.76z M21.93,25.36
	c-1.72,1.72-4.98,1.83-5.93,1.83c-0.96,0-4.25-0.14-5.93-1.83c-0.25-0.25-0.25-0.67,0-0.93c0.25-0.25,0.67-0.25,0.93,0
	c1.07,1.07,3.37,1.46,5.03,1.46s3.94-0.39,5.03-1.46c0.25-0.25,0.67-0.25,0.93,0C22.19,24.72,22.19,25.11,21.93,25.36z M21.48,21.26
	c-1.38,0-2.5-1.12-2.5-2.5c0-1.38,1.12-2.5,2.5-2.5s2.5,1.12,2.5,2.5C23.99,20.13,22.86,21.26,21.48,21.26z"/>
</svg>
