<?xml version="1.0" encoding="utf-8"?>
<!-- Generator: Adobe Illustrator 27.0.0, SVG Export Plug-In . SVG Version: 6.00 Build 0)  -->
<svg version="1.1" id="Layer_1" xmlns="http://www.w3.org/2000/svg" xmlns:xlink="http://www.w3.org/1999/xlink" x="0px" y="0px"
	 viewBox="0 0 32 32" style="enable-background:new 0 0 32 32;" xml:space="preserve">
<style type="text/css">
	.st0{fill:#FFFFFF;}
</style>
<g id="PRIMARY_-_GHOST">
	<path class="st0" d="M31.88,23.29c-0.22-0.6-0.65-0.93-1.13-1.19c-0.09-0.05-0.17-0.1-0.25-0.13c-0.15-0.07-0.29-0.15-0.44-0.22
		c-1.5-0.8-2.68-1.8-3.49-2.99c-0.23-0.34-0.43-0.69-0.6-1.06c-0.07-0.2-0.07-0.31-0.02-0.42c0.05-0.08,0.11-0.15,0.2-0.2
		c0.26-0.17,0.52-0.34,0.7-0.46c0.32-0.21,0.58-0.38,0.74-0.49c0.61-0.43,1.05-0.89,1.32-1.41c0.38-0.72,0.43-1.56,0.14-2.32
		c-0.41-1.08-1.42-1.74-2.66-1.74c-0.26,0-0.51,0.02-0.78,0.08c-0.07,0.02-0.14,0.03-0.2,0.05c0.01-0.74-0.01-1.51-0.07-2.28
		c-0.23-2.69-1.18-4.09-2.16-5.21c-0.63-0.7-1.36-1.3-2.19-1.77c-1.49-0.85-3.18-1.28-5.02-1.28s-3.52,0.43-5.01,1.28
		C10.16,2,9.42,2.59,8.79,3.3C7.81,4.42,6.87,5.83,6.63,8.51c-0.07,0.77-0.08,1.54-0.07,2.28c-0.07-0.02-0.13-0.03-0.2-0.05
		c-0.25-0.06-0.51-0.08-0.77-0.08c-1.23,0-2.25,0.67-2.66,1.74c-0.29,0.76-0.25,1.6,0.14,2.32c0.27,0.51,0.7,0.97,1.32,1.41
		c0.16,0.11,0.42,0.28,0.74,0.49c0.17,0.11,0.42,0.28,0.68,0.44c0.09,0.06,0.16,0.13,0.22,0.22c0.05,0.11,0.06,0.22-0.02,0.43
		c-0.16,0.36-0.36,0.71-0.59,1.04c-0.79,1.16-1.94,2.15-3.39,2.94c-0.77,0.41-1.57,0.68-1.91,1.6c-0.25,0.69-0.09,1.48,0.56,2.15
		l0,0c0.24,0.25,0.51,0.46,0.82,0.62c0.63,0.34,1.3,0.61,2,0.8c0.15,0.04,0.28,0.1,0.4,0.18c0.24,0.2,0.2,0.51,0.51,0.97
		c0.16,0.24,0.36,0.44,0.59,0.6c0.66,0.46,1.41,0.48,2.19,0.51c0.71,0.02,1.51,0.06,2.44,0.36c0.38,0.12,0.78,0.37,1.23,0.65
		c1.1,0.68,2.61,1.6,5.13,1.6s4.04-0.93,5.15-1.61c0.46-0.28,0.85-0.52,1.22-0.65c0.92-0.3,1.72-0.34,2.44-0.36
		c0.78-0.03,1.53-0.06,2.19-0.51c0.28-0.2,0.51-0.44,0.67-0.74c0.23-0.38,0.22-0.65,0.43-0.84c0.11-0.08,0.25-0.14,0.38-0.17
		c0.7-0.19,1.39-0.46,2.03-0.81c0.32-0.17,0.61-0.4,0.86-0.67l0.01-0.01C31.98,24.73,32.14,23.96,31.88,23.29z"/>
</g>
</svg>
