<?xml version="1.0" encoding="utf-8"?>
<!-- Generator: Adobe Illustrator 27.0.0, SVG Export Plug-In . SVG Version: 6.00 Build 0)  -->
<svg version="1.1" id="Layer_1" xmlns="http://www.w3.org/2000/svg" xmlns:xlink="http://www.w3.org/1999/xlink" x="0px" y="0px"
	 viewBox="0 0 32 32" style="enable-background:new 0 0 32 32;" xml:space="preserve">
<style type="text/css">
	.st0{fill:#FFFFFF;}
</style>
<g>
	<g>
		<path class="st0" d="M25.78,6.41c-1.72-1.12-2.97-2.92-3.36-5.02C22.35,0.94,22.3,0.48,22.3,0h-5.5l-0.01,22.05
			c-0.09,2.47-2.12,4.45-4.62,4.45c-0.77,0-1.5-0.19-2.15-0.53c-1.47-0.77-2.48-2.32-2.48-4.09c0-2.55,2.07-4.62,4.62-4.62
			c0.48,0,0.93,0.08,1.36,0.21v-4.31v-1.3c-0.45-0.06-0.9-0.1-1.36-0.1c-5.58,0-10.13,4.54-10.13,10.13c0,3.43,1.71,6.46,4.32,8.29
			c1.64,1.15,3.65,1.84,5.8,1.84c5.58,0,10.13-4.54,10.13-10.13V10.69c2.16,1.55,4.8,2.46,7.65,2.46V8.88V7.65
			C28.42,7.65,26.99,7.2,25.78,6.41z"/>
	</g>
</g>
</svg>
