<?xml version="1.0" encoding="utf-8"?>
<!-- Generator: Adobe Illustrator 27.0.0, SVG Export Plug-In . SVG Version: 6.00 Build 0)  -->
<svg version="1.1" id="Layer_1" xmlns="http://www.w3.org/2000/svg" xmlns:xlink="http://www.w3.org/1999/xlink" x="0px" y="0px"
	 viewBox="0 0 32 32" style="enable-background:new 0 0 32 32;" xml:space="preserve">
<style type="text/css">
	.st0{fill:#FFFFFF;}
</style>
<path class="st0" d="M31.33,8.3c-0.37-1.38-1.45-2.46-2.83-2.83C26.01,4.8,16,4.8,16,4.8S5.99,4.8,3.5,5.47
	C2.12,5.84,1.04,6.92,0.67,8.3C0,10.79,0,16,0,16s0,5.21,0.67,7.7c0.37,1.38,1.45,2.46,2.83,2.83C5.99,27.2,16,27.2,16,27.2
	s10.01,0,12.5-0.67c1.38-0.37,2.46-1.45,2.83-2.83C32,21.21,32,16,32,16S32,10.79,31.33,8.3z M12.8,20.8v-9.6l8.31,4.8L12.8,20.8z"
	/>
</svg>
